<svg width="512" height="512" viewBox="0 0 512 512" xmlns="http://www.w3.org/2000/svg">
  <rect width="512" height="512" fill="#0F1113"/>
  <g transform="translate(256,256) scale(0.66)">
    <g stroke="#C9A227" stroke-width="8" stroke-linecap="round">
      <line x1="0" y1="-176" x2="0" y2="-150" transform="rotate(0)"/>
      <line x1="0" y1="-176" x2="0" y2="-150" transform="rotate(30)"/>
      <line x1="0" y1="-176" x2="0" y2="-150" transform="rotate(60)"/>
      <line x1="0" y1="-176" x2="0" y2="-150" transform="rotate(90)"/>
      <line x1="0" y1="-176" x2="0" y2="-150" transform="rotate(120)"/>
      <line x1="0" y1="-176" x2="0" y2="-150" transform="rotate(150)"/>
      <line x1="0" y1="-176" x2="0" y2="-150" transform="rotate(180)"/>
      <line x1="0" y1="-176" x2="0" y2="-150" transform="rotate(210)"/>
      <line x1="0" y1="-176" x2="0" y2="-150" transform="rotate(240)"/>
      <line x1="0" y1="-176" x2="0" y2="-150" transform="rotate(270)"/>
      <line x1="0" y1="-176" x2="0" y2="-150" transform="rotate(300)"/>
      <line x1="0" y1="-176" x2="0" y2="-150" transform="rotate(330)"/>
    </g>
    <circle cx="0" cy="0" r="118" fill="none" stroke="#23272B" stroke-width="6"/>
    <text x="0" y="48" text-anchor="middle" font-family="Georgia, 'Times New Roman', serif"
          font-size="180" font-weight="700" fill="#C9A227">F</text>
  </g>
</svg>
